Musala Granito.ufo
<glyph name="one" format="2">
	<advance width="438.15"/>
	<unicode hex="0031"/>
	<outline>
		<contour>
			<point x="280.97" y="763" type="curve"/>
			<point x="269.144" y="760.533"/>
			<point x="235.272" y="748.66"/>
			<point x="219.422" y="742.167" type="curve" smooth="yes"/>
			<point x="188.031" y="729.309"/>
			<point x="57.262" y="668.305"/>
			<point x="45.002" y="662.82" type="curve"/>
			<point x="72.358" y="548.414" type="line"/>
			<point x="94.072" y="561.778"/>
			<point x="210.156" y="623.071"/>
			<point x="238.272" y="639.849" type="curve"/>
			<point x="227.97" y="666.875" type="line"/>
			<point x="221.97" y="587.137" type="line"/>
			<point x="221.97" y="0" type="line"/>
			<point x="364.97" y="0" type="line"/>
			<point x="361.97375" y="35.07031"/>
			<point x="355.859" y="102.48"/>
			<point x="353.859" y="122.746" type="curve"/>
			<point x="353.859" y="576.867" type="line"/>
			<point x="353.859" y="625.071"/>
			<point x="368.919" y="733.167"/>
			<point x="373.148" y="748.07" type="curve"/>
			<point x="368.148" y="750.11"/>
			<point x="288.292" y="762.444"/>
		</contour>
	</outline>
</glyph>
<glyph name="two" format="2">
	<advance width="587.8"/>
	<unicode hex="0032"/>
	<guideline x="500.4" y="329.19" angle="270"/>
	<guideline x="44.96" y="318.08" angle="270"/>
	<guideline x="427.99" y="705.05" angle="0"/>
	<outline>
		<contour>
			<point x="222.78" y="83.296" type="line"/>
			<point x="244.853" y="150.924"/>
			<point x="537.804" y="346.112"/>
			<point x="537.804" y="563.861" type="curve" smooth="yes"/>
			<point x="537.804" y="695.384"/>
			<point x="432.332" y="770"/>
			<point x="300.541" y="770" type="curve" smooth="yes"/>
			<point x="202.142" y="770"/>
			<point x="94.116" y="701.214"/>
			<point x="83.167" y="693.316" type="curve"/>
			<point x="78.87" y="686.792"/>
			<point x="56.469" y="646.955"/>
			<point x="56.469" y="639.14" type="curve" smooth="yes"/>
			<point x="56.469" y="631.699"/>
			<point x="106.94" y="582.823"/>
			<point x="116.529" y="574.645" type="curve"/>
			<point x="128.447" y="582.639"/>
			<point x="218.78" y="680.047"/>
			<point x="300.616" y="680.047" type="curve" smooth="yes"/>
			<point x="359.508" y="680.047"/>
			<point x="407.602" y="641.134"/>
			<point x="407.602" y="559.242" type="curve" smooth="yes"/>
			<point x="407.602" y="395.32434"/>
			<point x="60.93691" y="120.23"/>
			<point x="50.002" y="62.416" type="curve"/>
			<point x="50.002" y="54.46"/>
			<point x="94.23" y="12.309"/>
			<point x="106.208" y="-0.286" type="curve"/>
			<point x="264.876" y="6.491"/>
			<point x="358.929" y="3.555"/>
			<point x="498.772" y="-6.117" type="curve"/>
			<point x="537.772" y="97.883" type="line"/>
			<point x="429.106" y="101.082"/>
			<point x="424.619" y="98.745"/>
			<point x="310.12" y="98.745" type="curve" smooth="yes"/>
			<point x="271.541" y="98.745"/>
			<point x="217.78" y="92.53"/>
			<point x="206.268" y="90.383" type="curve"/>
		</contour>
	</outline>
</glyph>
<glyph name="at" format="2">
	<advance width="1111"/>
	<unicode hex="0040"/>
	<outline>
		<contour>
			<point x="510.05" y="-11" type="curve" smooth="yes"/>
			<point x="592.698" y="-11"/>
			<point x="672.244" y="52.621"/>
			<point x="718.244" y="78.812" type="curve"/>
			<point x="678.932" y="145.273" type="line"/>
			<point x="653.932" y="122.273"/>
			<point x="584.738" y="73"/>
			<point x="540.482" y="73" type="curve" smooth="yes"/>
			<point x="483.575" y="73"/>
			<point x="435.204" y="118.466"/>
			<point x="435.204" y="300" type="curve" smooth="yes"/>
			<point x="435.204" y="466"/>
			<point x="506.204" y="513"/>
			<point x="553.204" y="513" type="curve" smooth="yes"/>
			<point x="583.734" y="513"/>
			<point x="665.811" y="479"/>
			<point x="685.811" y="466" type="curve"/>
			<point x="707.941" y="541.878" type="line"/>
			<point x="689.941" y="561.878"/>
			<point x="570.628" y="600"/>
			<point x="514.591" y="600" type="curve" smooth="yes"/>
			<point x="393.876" y="600"/>
			<point x="305.349" y="502.942"/>
			<point x="305.349" y="282.522" type="curve" smooth="yes"/>
			<point x="305.349" y="75"/>
			<point x="426.02" y="-11"/>
		</contour>
		<contour>
			<point x="838.065" y="-11" type="curve"/>
			<point x="1005.32" y="-11"/>
			<point x="1056.003" y="161.569"/>
			<point x="1056.003" y="361.921" type="curve" smooth="yes"/>
			<point x="1056.003" y="616.921"/>
			<point x="882.328" y="815.921"/>
			<point x="580.003" y="815.921" type="curve" smooth="yes"/>
			<point x="312.337" y="815.921"/>
			<point x="55.003" y="652.674"/>
			<point x="55.003" y="284.64" type="curve" smooth="yes"/>
			<point x="55.003" y="-54.756"/>
			<point x="289.003" y="-228.079"/>
			<point x="580.003" y="-228.079" type="curve" smooth="yes"/>
			<point x="667.209" y="-228.079"/>
			<point x="756.87" y="-207.894"/>
			<point x="793.031" y="-190.007" type="curve"/>
			<point x="802.614" y="-179.744"/>
			<point x="822.987" y="-148.086"/>
			<point x="822.987" y="-141.667" type="curve" smooth="yes"/>
			<point x="822.987" y="-136.705"/>
			<point x="793.311" y="-99.067"/>
			<point x="777.972" y="-78.268" type="curve"/>
			<point x="751.864" y="-89.209"/>
			<point x="689.941" y="-115.079"/>
			<point x="597.003" y="-115.079" type="curve" smooth="yes"/>
			<point x="413.844" y="-115.079"/>
			<point x="187.003" y="-70.36"/>
			<point x="187.003" y="289.972" type="curve" smooth="yes"/>
			<point x="187.003" y="435.961"/>
			<point x="235.523" y="557"/>
			<point x="289.003" y="609.921" type="curve"/>
			<point x="315.337" y="631.921"/>
			<point x="413.844" y="702.921"/>
			<point x="570.628" y="702.921" type="curve" smooth="yes"/>
			<point x="838.065" y="702.921"/>
			<point x="924.003" y="569.258"/>
			<point x="924.003" y="340.168" type="curve" smooth="yes"/>
			<point x="924.003" y="163.891"/>
			<point x="915.94" y="136.57"/>
			<point x="909.723" y="116.515" type="curve"/>
			<point x="899.261" y="99.372"/>
			<point x="870.668" y="72.991"/>
			<point x="840.159" y="72.991" type="curve" smooth="yes"/>
			<point x="804.773" y="72.991"/>
			<point x="777.406" y="96.41"/>
			<point x="777.406" y="147.569" type="curve" smooth="yes"/>
			<point x="777.415" y="467.818" type="line"/>
			<point x="780.415" y="496.538"/>
			<point x="800.116" y="561.627"/>
			<point x="805.54" y="583" type="curve"/>
			<point x="800.54" y="587"/>
			<point x="750.54" y="601"/>
			<point x="739.54" y="600" type="curve"/>
			<point x="728.54" y="600"/>
			<point x="651.54" y="562"/>
			<point x="645.54" y="556" type="curve"/>
			<point x="645.54" y="133.57" type="line"/>
			<point x="645.54" y="116.638"/>
			<point x="645.055" y="99.372"/>
			<point x="653.704" y="87.139" type="curve"/>
			<point x="680.701" y="62.802"/>
			<point x="753.771" y="-10.662"/>
		</contour>
	</outline>
</glyph>
<glyph name="B" format="2">
	<advance width="599.97"/>
	<unicode hex="0042"/>
	<guideline x="701.54" y="328.27" angle="0"/>
	<guideline x="696.67" y="232.55" angle="0"/>
	<guideline x="70.72" y="902.32" angle="270"/>
	<guideline x="215" y="902.32" angle="270"/>
	<guideline x="402.2" y="906.48" angle="270"/>
	<guideline x="542.2" y="906.48" angle="270"/>
	<outline>
		<contour>
			<point x="65" y="0" type="curve"/>
			<point x="205" y="0" type="line" smooth="yes"/>
			<point x="333.807" y="0"/>
			<point x="350.7158" y="0"/>
			<point x="402.2008" y="0" type="curve" smooth="yes"/>
			<point x="416.46032" y="0"/>
			<point x="542.2008" y="85.05563"/>
			<point x="542.2008" y="96.194" type="curve" smooth="yes"/>
			<point x="542.2008" y="145.09576"/>
			<point x="542.2008" y="230.28546"/>
			<point x="542.2008" y="280.07372" type="curve" smooth="yes"/>
			<point x="542.2008" y="280.07372"/>
			<point x="497.89299" y="366.45952"/>
			<point x="446.69152" y="410.26278" type="curve"/>
			<point x="500" y="454.9747"/>
			<point x="537.36308" y="498.20668"/>
			<point x="537.36308" y="513.28717" type="curve" smooth="yes"/>
			<point x="537.36308" y="545.08697"/>
			<point x="537.55327" y="668.22001"/>
			<point x="537.55327" y="696.678" type="curve" smooth="yes"/>
			<point x="537.55327" y="706.5045"/>
			<point x="407.80273" y="783.04"/>
			<point x="402.2008" y="783.04" type="curve" smooth="yes"/>
			<point x="350.2688" y="783.04"/>
			<point x="281.592" y="783.04"/>
			<point x="212.719" y="783.04" type="curve" smooth="yes"/>
			<point x="179.22" y="783.04"/>
			<point x="115.00231" y="762.49827"/>
			<point x="70.76231" y="755.79427" type="curve"/>
			<point x="77.54031" y="701.79527"/>
			<point x="75.495" y="635.948"/>
			<point x="80.045" y="578.414" type="curve"/>
			<point x="80.055" y="153.611" type="line"/>
			<point x="80.041" y="121.307"/>
			<point x="70.648" y="41.229"/>
		</contour>
		<contour>
			<point x="340.387" y="96.194" type="curve" smooth="yes"/>
			<point x="318.667" y="96.194"/>
			<point x="249.656" y="97.528"/>
			<point x="215" y="99.537" type="curve"/>
			<point x="215" y="345.638" type="line"/>
			<point x="353.347" y="345.638" type="line"/>
			<point x="357.05591" y="345.638"/>
			<point x="405.89767" y="279.93441"/>
			<point x="405.89767" y="279.93441" type="curve" smooth="yes"/>
			<point x="405.89767" y="261.75781"/>
			<point x="406.70328" y="193.94071"/>
			<point x="406.70328" y="153.611" type="curve" smooth="yes"/>
			<point x="406.70328" y="153.611"/>
			<point x="340.387" y="96.194"/>
		</contour>
		<contour>
			<point x="353.55469" y="451.137" type="curve" smooth="yes"/>
			<point x="339.10069" y="451.137"/>
			<point x="227.777" y="451.611"/>
			<point x="215" y="452.385" type="curve"/>
			<point x="215" y="696.678" type="line"/>
			<point x="233.971" y="698.369"/>
			<point x="311.57031" y="699.96094"/>
			<point x="324.64062" y="700.271" type="curve" smooth="yes"/>
			<point x="324.64062" y="700.271"/>
			<point x="404.75781" y="663.07812"/>
			<point x="404.75781" y="663.07812" type="curve" smooth="yes"/>
			<point x="404.75781" y="617.28175"/>
			<point x="402.2008" y="545.43347"/>
			<point x="404.75781" y="509.30469" type="curve" smooth="yes"/>
			<point x="405.66406" y="496.5"/>
			<point x="364.03779" y="451.137"/>
		</contour>
	</outline>
</glyph>
<glyph name="G" format="2">
	<advance width="632.13"/>
	<unicode hex="0047"/>
	<guideline x="70.72" y="902.32" angle="270"/>
	<guideline x="215" y="902.32" angle="270"/>
	<guideline x="402.2" y="906.48" angle="270"/>
	<guideline x="542.2" y="906.48" angle="270"/>
	<outline>
		<contour>
			<point x="318" y="301" type="line"/>
			<point x="318" y="395" type="line"/>
			<point x="403.465" y="388.33"/>
			<point x="499.426" y="389.155"/>
			<point x="547.133" y="395" type="curve"/>
			<point x="547.133" y="301" type="line"/>
		</contour>
		<contour>
			<point x="547.42019" y="162.83144"/>
			<point x="479.97938" y="0"/>
			<point x="442.201" y="0" type="curve" smooth="yes"/>
			<point x="393.515" y="0"/>
			<point x="215" y="0"/>
			<point x="215" y="0" type="curve" smooth="yes"/>
			<point x="193.991" y="9.931"/>
			<point x="70.719" y="180.454"/>
			<point x="70.719" y="188.43" type="curve" smooth="yes"/>
			<point x="70.719" y="263.451"/>
			<point x="74.074" y="554.266"/>
			<point x="75.67" y="585.352" type="curve" smooth="yes"/>
			<point x="76.795" y="607.269"/>
			<point x="198.95936" y="788.33984"/>
			<point x="204.44422" y="788.33984" type="curve" smooth="yes"/>
			<point x="204.44422" y="788.33984"/>
			<point x="375.77234" y="800"/>
			<point x="402.2008" y="800" type="curve"/>
			<point x="411.7418" y="799.482"/>
			<point x="475.209" y="783.178"/>
			<point x="506.789" y="775.478" type="curve"/>
			<point x="514.168" y="765.598"/>
			<point x="532.867" y="741.561"/>
			<point x="532.867" y="733.683" type="curve" smooth="yes"/>
			<point x="532.867" y="725.683"/>
			<point x="500.766" y="661.811"/>
			<point x="492.515" y="653.516" type="curve"/>
			<point x="483.011" y="657.187"/>
			<point x="410.333" y="695.385"/>
			<point x="402.201" y="695.535" type="curve" smooth="yes"/>
			<point x="340.209" y="696.678"/>
			<point x="317.002" y="696.678"/>
			<point x="287.08" y="696.125" type="curve"/>
			<point x="282.878" y="688.454"/>
			<point x="208.055" y="574.14"/>
			<point x="208.433" y="562.146" type="curve" smooth="yes"/>
			<point x="208.681" y="554.292"/>
			<point x="207.724" y="291.852"/>
			<point x="210.682" y="226.774" type="curve" smooth="yes"/>
			<point x="210.682" y="226.774"/>
			<point x="268.905" y="104.544"/>
			<point x="275.004" y="96.194" type="curve" smooth="yes"/>
			<point x="275.004" y="96.194"/>
			<point x="359.85567" y="96.194"/>
			<point x="389.32023" y="96.194" type="curve" smooth="yes"/>
			<point x="389.32023" y="96.194"/>
			<point x="428.01915" y="188.43"/>
			<point x="436.79" y="224.026" type="curve"/>
			<point x="439.529" y="303.436"/>
			<point x="439.03541" y="288.91403"/>
			<point x="434.03241" y="379.79403" type="curve"/>
			<point x="547.133" y="301" type="line"/>
			<point x="547.133" y="185.22609" type="line"/>
		</contour>
	</outline>
</glyph>
<glyph name="H" format="2">
	<advance width="642.78"/>
	<unicode hex="0048"/>
	<guideline x="25.86" y="640" angle="0"/>
	<guideline x="53.86" y="0" angle="0"/>
	<guideline x="180.86" y="0" angle="0"/>
	<guideline x="25.86" y="688" angle="0"/>
	<guideline x="68.86" y="0" angle="0"/>
	<guideline x="70.72" y="902.32" angle="270"/>
	<guideline x="215" y="902.32" angle="270"/>
	<guideline x="402.2" y="906.48" angle="270"/>
	<guideline x="542.2" y="906.48" angle="270"/>
	<outline>
		<contour>
			<point x="52.86" y="0" type="curve"/>
			<point x="200.86" y="0" type="line"/>
			<point x="200.476" y="789.373" type="line"/>
			<point x="195.034" y="791.694"/>
			<point x="159.205" y="800.453"/>
			<point x="148.289" y="800.373" type="curve" smooth="yes"/>
			<point x="137.639" y="800.295"/>
			<point x="61.739" y="783.28"/>
			<point x="50.003" y="779.471" type="curve"/>
			<point x="56.781" y="725.472"/>
			<point x="61.355" y="645.948"/>
			<point x="65.905" y="588.414" type="curve"/>
			<point x="65.915" y="153.611" type="line"/>
			<point x="65.915" y="128.688"/>
			<point x="58.508" y="41.229"/>
		</contour>
		<contour>
			<point x="165.003" y="341" type="line"/>
			<point x="435.003" y="341" type="line"/>
			<point x="435.003" y="435" type="line"/>
			<point x="344.85" y="427.602"/>
			<point x="255.13" y="426.622"/>
			<point x="165.003" y="435" type="curve"/>
		</contour>
		<contour>
			<point x="549.92" y="0" type="line"/>
			<point x="544.272" y="41.229"/>
			<point x="536.865" y="128.688"/>
			<point x="536.865" y="153.611" type="curve"/>
			<point x="536.875" y="588.414" type="line"/>
			<point x="541.425" y="645.948"/>
			<point x="545.999" y="735.472"/>
			<point x="552.777" y="789.471" type="curve"/>
			<point x="547.076" y="791.694"/>
			<point x="511.141" y="800.295"/>
			<point x="500.491" y="800.373" type="curve" smooth="yes"/>
			<point x="489.575" y="800.453"/>
			<point x="407.746" y="781.694"/>
			<point x="402.304" y="779.373" type="curve"/>
			<point x="401.92" y="0" type="line"/>
		</contour>
	</outline>
</glyph>
<glyph name="N" format="2">
	<advance width="677.86"/>
	<unicode hex="004E"/>
	<guideline x="70.72" y="902.32" angle="270"/>
	<guideline x="215" y="902.32" angle="270"/>
	<guideline x="402.2" y="906.48" angle="270"/>
	<guideline x="542.2" y="906.48" angle="270"/>
	<anchor x="360.04322" y="794.55492" name="top"/>
	<anchor x="339" y="0" name="bottom"/>
	<outline>
		<contour>
			<point x="538.683" y="0" type="line"/>
			<point x="533.035" y="41.229"/>
			<point x="528.627" y="128.688"/>
			<point x="528.627" y="153.611" type="curve"/>
			<point x="528.637" y="588.414" type="line"/>
			<point x="533.187" y="645.948"/>
			<point x="541.086" y="737.482"/>
			<point x="547.864" y="791.481" type="curve"/>
			<point x="543.01" y="793.055"/>
			<point x="517.182" y="800.44"/>
			<point x="506.265" y="800.373" type="curve" smooth="yes"/>
			<point x="493.615" y="800.295"/>
			<point x="422.028" y="788.175"/>
			<point x="414.986" y="786.061" type="curve"/>
			<point x="415.86" y="191" type="line"/>
			<point x="402.2008" y="270.60348"/>
			<point x="306.33125" y="600"/>
			<point x="243.435" y="795.317" type="curve"/>
			<point x="234.317" y="795.878"/>
			<point x="164.703" y="800"/>
			<point x="152.86" y="800" type="curve" smooth="yes"/>
			<point x="146.351" y="800"/>
			<point x="63.308" y="783.093"/>
			<point x="50.003" y="779.471" type="curve"/>
			<point x="56.781" y="725.472"/>
			<point x="61.355" y="645.948"/>
			<point x="65.905" y="588.414" type="curve"/>
			<point x="65.915" y="153.611" type="line"/>
			<point x="65.915" y="128.688"/>
			<point x="58.508" y="41.229"/>
			<point x="52.86" y="0" type="curve"/>
			<point x="177.86" y="0" type="line"/>
			<point x="178.86" y="622" type="line"/>
			<point x="358.86" y="0" type="line"/>
		</contour>
	</outline>
</glyph>
<glyph name="P" format="2">
	<advance width="602.56"/>
	<unicode hex="0050"/>
	<guideline x="10.86" y="0" angle="0"/>
	<guideline x="-20.14" y="535" angle="0"/>
	<guideline x="70.72" y="902.32" angle="270"/>
	<guideline x="215" y="902.32" angle="270"/>
	<guideline x="402.2" y="906.48" angle="270"/>
	<guideline x="542.2" y="906.48" angle="270"/>
	<outline>
		<contour>
			<point x="67.86" y="0" type="curve"/>
			<point x="215.86" y="0" type="line"/>
			<point x="215.86" y="721.658" type="line"/>
			<point x="192.443" y="695.542" type="line"/>
			<point x="209.175" y="696.946"/>
			<point x="257.985" y="701.271"/>
			<point x="368.08969" y="701.271" type="curve" smooth="yes"/>
			<point x="383.584" y="701.271"/>
			<point x="420.878" y="627.42578"/>
			<point x="420.878" y="619.96094" type="curve" smooth="yes"/>
			<point x="420.878" y="578.21875"/>
			<point x="420.76677" y="480.09896"/>
			<point x="419.27328" y="446.77734" type="curve" smooth="yes"/>
			<point x="418.59768" y="431.70386"/>
			<point x="381.86966" y="359.137"/>
			<point x="374.57797" y="359.137" type="curve" smooth="yes"/>
			<point x="348.21397" y="359.137"/>
			<point x="206.692" y="360.715"/>
			<point x="186.083" y="362.807" type="curve"/>
			<point x="153.396" y="301.265" type="line"/>
			<point x="190.387" y="290.628"/>
			<point x="304.32525" y="277.86458"/>
			<point x="360.798" y="265.024" type="curve" smooth="yes"/>
			<point x="360.798" y="265.024"/>
			<point x="470.89396" y="287.60182"/>
			<point x="482.39437" y="305.89844" type="curve" smooth="yes"/>
			<point x="517.42844" y="361.636"/>
			<point x="542.19125" y="429.03906"/>
			<point x="542.2008" y="456.17969" type="curve" smooth="yes"/>
			<point x="542.21537" y="497.59248"/>
			<point x="549.36255" y="644.78636"/>
			<point x="542.2008" y="660.82812" type="curve" smooth="yes"/>
			<point x="506.55255" y="740.67744"/>
			<point x="433.38538" y="793.56652"/>
			<point x="433.38538" y="793.56652" type="curve" smooth="yes"/>
			<point x="376.55435" y="794.58543"/>
			<point x="316.873" y="800"/>
			<point x="213.579" y="801.152" type="curve" smooth="yes"/>
			<point x="180.08208" y="801.52558"/>
			<point x="109.243" y="790.17"/>
			<point x="65.003" y="783.466" type="curve"/>
			<point x="71.781" y="729.467"/>
			<point x="76.355" y="645.948"/>
			<point x="80.905" y="588.414" type="curve"/>
			<point x="80.915" y="153.611" type="line"/>
			<point x="80.915" y="128.688"/>
			<point x="73.508" y="41.229"/>
		</contour>
	</outline>
</glyph>
<glyph name="R" format="2">
	<advance width="653.86"/>
	<unicode hex="0052"/>
	<guideline x="70.72" y="902.32" angle="270"/>
	<guideline x="215" y="902.32" angle="270"/>
	<guideline x="402.2" y="906.48" angle="270"/>
	<guideline x="542.2" y="906.48" angle="270"/>
	<outline>
		<contour>
			<point x="405.86" y="0" type="line"/>
			<point x="573.86" y="0" type="line"/>
			<point x="556.583" y="26.828"/>
			<point x="504.975" y="105.849"/>
			<point x="491.033" y="131.635" type="curve"/>
			<point x="433.385" y="244.07814" type="line"/>
			<point x="336.04413" y="337.01468" type="line"/>
			<point x="255.86" y="335.07" type="line"/>
		</contour>
		<contour>
			<point x="67.86" y="0" type="curve"/>
			<point x="215.86" y="0" type="line"/>
			<point x="215.86" y="721.658" type="line"/>
			<point x="192.443" y="695.542" type="line"/>
			<point x="209.175" y="696.946"/>
			<point x="257.985" y="701.271"/>
			<point x="368.09" y="701.271" type="curve" smooth="yes"/>
			<point x="383.584" y="701.271"/>
			<point x="420.878" y="627.426"/>
			<point x="420.878" y="619.961" type="curve" smooth="yes"/>
			<point x="420.878" y="578.219"/>
			<point x="420.767" y="480.099"/>
			<point x="419.273" y="446.777" type="curve" smooth="yes"/>
			<point x="418.598" y="431.704"/>
			<point x="381.87" y="359.137"/>
			<point x="374.578" y="359.137" type="curve" smooth="yes"/>
			<point x="348.214" y="359.137"/>
			<point x="206.692" y="360.715"/>
			<point x="186.083" y="362.807" type="curve"/>
			<point x="153.396" y="301.265" type="line"/>
			<point x="190.387" y="290.628"/>
			<point x="304.325" y="277.865"/>
			<point x="360.798" y="265.024" type="curve" smooth="yes"/>
			<point x="360.798" y="265.024"/>
			<point x="471.70534" y="287.11654"/>
			<point x="482.394" y="305.898" type="curve" smooth="yes"/>
			<point x="498.996" y="335.07"/>
			<point x="542.191" y="426.039"/>
			<point x="542.201" y="453.18" type="curve" smooth="yes"/>
			<point x="542.215" y="494.592"/>
			<point x="549.363" y="644.786"/>
			<point x="542.201" y="660.828" type="curve" smooth="yes"/>
			<point x="506.553" y="740.677"/>
			<point x="433.385" y="793.567"/>
			<point x="433.385" y="793.567" type="curve" smooth="yes"/>
			<point x="376.554" y="794.585"/>
			<point x="316.873" y="800"/>
			<point x="213.579" y="801.152" type="curve" smooth="yes"/>
			<point x="180.082" y="801.526"/>
			<point x="109.243" y="790.17"/>
			<point x="65.003" y="783.466" type="curve"/>
			<point x="71.781" y="729.467"/>
			<point x="76.355" y="645.948"/>
			<point x="80.905" y="588.414" type="curve"/>
			<point x="80.915" y="153.611" type="line"/>
			<point x="80.915" y="128.688"/>
			<point x="73.508" y="41.229"/>
		</contour>
	</outline>
</glyph>
<glyph name="S" format="2">
	<advance width="608.91"/>
	<unicode hex="0053"/>
	<guideline x="70.72" y="902.32" angle="270"/>
	<guideline x="215" y="902.32" angle="270"/>
	<guideline x="402.2" y="906.48" angle="270"/>
	<guideline x="542.2" y="906.48" angle="270"/>
	<outline>
		<contour>
			<point x="493.03005" y="381.93372"/>
			<point x="545.88138" y="259.61825"/>
			<point x="546.2008" y="239.875" type="curve" smooth="yes"/>
			<point x="546.93223" y="194.66463"/>
			<point x="515.69872" y="90.45928"/>
			<point x="512.75953" y="83.26008" type="curve"/>
			<point x="506.33786" y="76.05285"/>
			<point x="402.2008" y="0"/>
			<point x="372.87932" y="0" type="curve" smooth="yes"/>
			<point x="305.94265" y="0"/>
			<point x="227.57716" y="0"/>
			<point x="209" y="0" type="curve" smooth="yes"/>
			<point x="183.88867" y="0"/>
			<point x="103.52085" y="44.19981"/>
			<point x="39.996" y="76" type="curve"/>
			<point x="84.89969" y="149.32294" type="line"/>
			<point x="117.02404" y="132.43162"/>
			<point x="183.20321" y="108.16317"/>
			<point x="221.79936" y="97.58523" type="curve" smooth="yes"/>
			<point x="253.81263" y="88.81143"/>
			<point x="345.83506" y="93.22267"/>
			<point x="361.77693" y="93.86245" type="curve" smooth="yes"/>
			<point x="374.5369" y="94.37454"/>
			<point x="417.94697" y="156.61932"/>
			<point x="422.09937" y="178.625" type="curve" smooth="yes"/>
			<point x="427.29469" y="206.15755"/>
			<point x="396.52959" y="285.84586"/>
			<point x="389.55752" y="293.34468" type="curve" smooth="yes"/>
			<point x="374.96122" y="309.04376"/>
			<point x="189.17038" y="351.42319"/>
			<point x="147.15406" y="381.93372" type="curve" smooth="yes"/>
			<point x="113.485" y="406.38281"/>
			<point x="74.30935" y="558.25762"/>
			<point x="70.71875" y="586.74834" type="curve"/>
			<point x="72.71875" y="619.05185"/>
			<point x="135.69975" y="758.10843"/>
			<point x="143.66933" y="769.00699" type="curve"/>
			<point x="174.47584" y="784.39962"/>
			<point x="310.80629" y="800.8424"/>
			<point x="328.29297" y="800" type="curve" smooth="yes"/>
			<point x="388.77354" y="797.08641"/>
			<point x="470.12487" y="790.31399"/>
			<point x="486.76258" y="784.98623" type="curve"/>
			<point x="495.25465" y="775.64781"/>
			<point x="517.43096" y="743.56484"/>
			<point x="517.43096" y="738.68883" type="curve" smooth="yes"/>
			<point x="517.43096" y="722.7878"/>
			<point x="470.12487" y="662.45285"/>
			<point x="457.86902" y="652.00042" type="curve"/>
			<point x="442.19443" y="667.16276"/>
			<point x="372.87932" y="696.678"/>
			<point x="355.14814" y="696.678" type="curve" smooth="yes"/>
			<point x="341.40797" y="696.678"/>
			<point x="231.49184" y="688.42839"/>
			<point x="217.56161" y="673.46354" type="curve" smooth="yes"/>
			<point x="213.90998" y="669.54821"/>
			<point x="194.26391" y="605.85132"/>
			<point x="194.26391" y="583.99621" type="curve" smooth="yes"/>
			<point x="194.26391" y="560.0142"/>
			<point x="249.95165" y="467.93916"/>
			<point x="262.61737" y="462.23026" type="curve" smooth="yes"/>
			<point x="298.32533" y="446.1354"/>
			<point x="424.38739" y="419.35316"/>
			<point x="473.981" y="392.318" type="curve" smooth="yes"/>
		</contour>
	</outline>
</glyph>
<glyph name="T" format="2">
	<advance width="579.78"/>
	<unicode hex="0054"/>
	<guideline x="376.23" y="701.98" angle="0"/>
	<outline>
		<contour>
			<point x="30.003" y="800.471" type="line"/>
			<point x="30.003" y="701.471" type="line"/>
			<point x="111.497" y="705.44"/>
			<point x="235.99" y="707.41"/>
			<point x="294.484" y="707.379" type="curve" smooth="yes"/>
			<point x="349.916" y="707.35"/>
			<point x="471.348" y="705.44"/>
			<point x="549.779" y="701.471" type="curve"/>
			<point x="549.779" y="800.471" type="line"/>
		</contour>
		<contour>
			<point x="219.225" y="749.328" type="line"/>
			<point x="225.003" y="699.329"/>
			<point x="225.349" y="638.315"/>
			<point x="227.27" y="588.414" type="curve"/>
			<point x="227.28" y="153.611" type="line"/>
			<point x="227.28" y="128.688"/>
			<point x="219.873" y="41.229"/>
			<point x="214.225" y="0" type="curve"/>
			<point x="364" y="0" type="line"/>
			<point x="363.616" y="745.394" type="line"/>
		</contour>
	</outline>
</glyph>
<glyph name="U" format="2">
	<advance width="623.63"/>
	<unicode hex="0055"/>
	<guideline x="70.72" y="902.32" angle="270"/>
	<guideline x="215" y="902.32" angle="270"/>
	<guideline x="402.2" y="906.48" angle="270"/>
	<guideline x="542.2" y="906.48" angle="270"/>
	<anchor x="590" y="10" name="ogonek"/>
	<anchor x="326.13682" y="800" name="top"/>
	<anchor x="635.83" y="800" name="topright"/>
	<anchor x="328" y="0" name="bottom"/>
	<outline>
		<contour>
			<point x="238.7574" y="-11" type="curve" smooth="yes"/>
			<point x="268.69389" y="-11"/>
			<point x="456.47078" y="108"/>
			<point x="472.59231" y="120.799" type="curve"/>
			<point x="447.9289" y="172.646" type="line"/>
			<point x="441.45043" y="164.432"/>
			<point x="303.31673" y="101"/>
			<point x="259.30617" y="101" type="curve" smooth="yes"/>
			<point x="249.47969" y="101"/>
			<point x="215.96083" y="139.94398"/>
			<point x="215.9661" y="147" type="curve" smooth="yes"/>
			<point x="216.44487" y="788.875" type="line"/>
			<point x="212.82684" y="791.449"/>
			<point x="167.05307" y="800.44"/>
			<point x="156.8045" y="800.373" type="curve" smooth="yes"/>
			<point x="144.92903" y="800.295"/>
			<point x="71.61283" y="781.585"/>
			<point x="65.002" y="779.471" type="curve"/>
			<point x="71.365" y="725.472"/>
			<point x="74.72017" y="645.948"/>
			<point x="78.99158" y="588.414" type="curve"/>
			<point x="79.00097" y="199.431" type="line"/>
			<point x="75.47682" y="87" type="line"/>
			<point x="75.47682" y="75.797"/>
			<point x="114.83952" y="9"/>
			<point x="114.83952" y="9" type="curve" smooth="yes"/>
			<point x="122.88198" y="3.075"/>
			<point x="220.41567" y="-11"/>
		</contour>
		<contour>
			<point x="555.08782" y="0" type="line"/>
			<point x="549.78564" y="41.229"/>
			<point x="542.83216" y="128.688"/>
			<point x="542.83216" y="153.611" type="curve"/>
			<point x="542.84155" y="588.414" type="line"/>
			<point x="546.17419" y="645.948"/>
			<point x="552.26869" y="731.72"/>
			<point x="558.63169" y="785.719" type="curve"/>
			<point x="555.01366" y="788.293"/>
			<point x="516.64512" y="800.44"/>
			<point x="506.39655" y="800.373" type="curve" smooth="yes"/>
			<point x="494.52108" y="800.295"/>
			<point x="423.31524" y="783.069"/>
			<point x="415.93837" y="780.955" type="curve"/>
			<point x="416.25474" y="0.08" type="line"/>
		</contour>
	</outline>
</glyph>
<glyph name="V" format="2">
	<advance width="636.11"/>
	<unicode hex="0056"/>
	<guideline x="70.72" y="902.32" angle="270"/>
	<guideline x="215" y="902.32" angle="270"/>
	<guideline x="402.2" y="906.48" angle="270"/>
	<guideline x="542.2" y="906.48" angle="270"/>
	<outline>
		<contour>
			<point x="424.44904" y="780.955" type="curve"/>
			<point x="423.2008" y="688.93022"/>
			<point x="423.2008" y="503.33258"/>
			<point x="423.2008" y="404.828" type="curve" smooth="yes"/>
			<point x="423.2008" y="314.934"/>
			<point x="442.06008" y="99.17125"/>
			<point x="370.96219" y="52.78125" type="curve"/>
			<point x="451.2379" y="74.43125"/>
			<point x="523.89969" y="150.07031"/>
			<point x="528.19243" y="173.212" type="curve"/>
			<point x="531.14648" y="199.553"/>
			<point x="540.09041" y="267.775"/>
			<point x="543.90872" y="349.814" type="curve"/>
			<point x="547.68139" y="593.056" type="line"/>
			<point x="550.68013" y="663.429"/>
			<point x="554.66387" y="755.31"/>
			<point x="555.21056" y="789.373" type="curve"/>
			<point x="550.05547" y="791.694"/>
			<point x="515.11169" y="800.453"/>
			<point x="504.73304" y="800.373" type="curve" smooth="yes"/>
			<point x="494.60636" y="800.295"/>
			<point x="435.63965" y="784.764"/>
		</contour>
		<contour>
			<point x="55.001" y="780.955" type="curve"/>
			<point x="61.19909" y="757.609"/>
			<point x="72.18433" y="669.142"/>
			<point x="75.65465" y="587.24" type="curve"/>
			<point x="79.09836" y="366.809" type="line"/>
			<point x="79.09836" y="339.39"/>
			<point x="91.19695" y="170.861"/>
			<point x="102.82966" y="138.689" type="curve"/>
			<point x="146.28287" y="73.853"/>
			<point x="283.20376" y="-10.806"/>
			<point x="313.50301" y="-10.806" type="curve" smooth="yes"/>
			<point x="337.54427" y="-10.806"/>
			<point x="541.85559" y="144.94036"/>
			<point x="503.86844" y="157.729" type="curve" smooth="yes"/>
			<point x="435.64969" y="180.69531" type="line"/>
			<point x="422.40161" y="180.69531"/>
			<point x="334.32156" y="90.629"/>
			<point x="322.63329" y="96.194" type="curve" smooth="yes"/>
			<point x="294.21979" y="109.72219"/>
			<point x="200.03675" y="172.62482"/>
			<point x="200.03675" y="205.633" type="curve" smooth="yes"/>
			<point x="200.03675" y="789.373" type="line"/>
			<point x="194.86264" y="791.694"/>
			<point x="160.79737" y="800.453"/>
			<point x="150.41873" y="800.373" type="curve" smooth="yes"/>
			<point x="140.29299" y="800.295"/>
			<point x="66.15161" y="784.764"/>
		</contour>
	</outline>
</glyph>
<glyph name="X" format="2">
	<advance width="689.12"/>
	<unicode hex="0058"/>
	<guideline x="-341.39" y="551.05" angle="270"/>
	<guideline x="-872.9" y="561.08" angle="270"/>
	<guideline x="70.72" y="902.32" angle="270"/>
	<guideline x="215" y="902.32" angle="270"/>
	<guideline x="402.2" y="906.48" angle="270"/>
	<guideline x="542.2" y="906.48" angle="270"/>
	<outline>
		<contour>
			<point x="421.91134" y="-0.369" type="line"/>
			<point x="564.1312" y="0.049" type="line"/>
			<point x="529.9453" y="114.79688"/>
			<point x="488.03224" y="244.44482"/>
			<point x="477.05311" y="257.65" type="curve"/>
			<point x="449.34843" y="295.371"/>
			<point x="281.48999" y="548.12925"/>
			<point x="275.28634" y="579.298" type="curve" smooth="yes"/>
			<point x="233.47421" y="789.373" type="line"/>
			<point x="228.68994" y="791.694"/>
			<point x="197.08769" y="800.453"/>
			<point x="187.41639" y="800.373" type="curve" smooth="yes"/>
			<point x="177.9816" y="800.295"/>
			<point x="102.47228" y="784.764"/>
			<point x="92.01792" y="780.955" type="curve"/>
			<point x="102.35692" y="732.5"/>
			<point x="111.67796" y="638.905"/>
			<point x="135.11719" y="568.315" type="curve"/>
			<point x="191.84994" y="490.857"/>
			<point x="397.03563" y="225.30424"/>
			<point x="402.2008" y="178.44724" type="curve" smooth="yes"/>
		</contour>
		<contour>
			<point x="398.94222" y="780.955" type="curve"/>
			<point x="395.28906" y="731.09375"/>
			<point x="399.1627" y="618.12668"/>
			<point x="400.60156" y="582.41406" type="curve" smooth="yes"/>
			<point x="401.44064" y="561.58812"/>
			<point x="364.89956" y="482.806"/>
			<point x="312.86428" y="410.685" type="curve"/>
			<point x="350.52637" y="366.222" type="line"/>
			<point x="391.90622" y="400.688"/>
			<point x="483.34776" y="534.696"/>
			<point x="501.91439" y="568.315" type="curve"/>
			<point x="502.82031" y="587.17969"/>
			<point x="542.2008" y="749.24953"/>
			<point x="538.69244" y="789.373" type="curve"/>
			<point x="533.92588" y="791.694"/>
			<point x="503.27677" y="800.453"/>
			<point x="493.60547" y="800.373" type="curve" smooth="yes"/>
			<point x="484.16979" y="800.295"/>
			<point x="409.4267" y="784.764"/>
		</contour>
		<contour>
			<point x="202.28653" y="0.049" type="line"/>
			<point x="203.37234" y="70.26653"/>
			<point x="212.57028" y="150.0445"/>
			<point x="213.78514" y="170.26834" type="curve" smooth="yes"/>
			<point x="215.11327" y="192.37772"/>
			<point x="292.13541" y="338.08212"/>
			<point x="319.03308" y="366.174" type="curve"/>
			<point x="276.86308" y="400.75" type="line"/>
			<point x="226.78367" y="350.91406"/>
			<point x="120.17613" y="239.148"/>
			<point x="113.52722" y="219.929" type="curve"/>
			<point x="103.55613" y="194.4391"/>
			<point x="65.46729" y="40.43066"/>
			<point x="60.002" y="-0.369" type="curve"/>
		</contour>
	</outline>
</glyph>
<glyph name="Z" format="2">
	<advance width="598.14"/>
	<unicode hex="005A"/>
	<guideline x="70.72" y="902.32" angle="270"/>
	<guideline x="215" y="902.32" angle="270"/>
	<guideline x="402.2" y="906.48" angle="270"/>
	<guideline x="542.2" y="906.48" angle="270"/>
	<outline>
		<contour>
			<point x="540" y="0" type="line"/>
			<point x="540.143" y="108" type="line"/>
			<point x="481.99" y="100.363"/>
			<point x="372.542" y="92"/>
			<point x="236" y="92" type="curve" smooth="yes"/>
			<point x="201.217" y="92"/>
			<point x="174.021" y="91.477"/>
			<point x="145.178" y="91.501" type="curve"/>
			<point x="50" y="84" type="line"/>
			<point x="50" y="0" type="line"/>
		</contour>
		<contour>
			<point x="548.143" y="762.471" type="line"/>
			<point x="513.143" y="771.471"/>
			<point x="471" y="783"/>
			<point x="452" y="783" type="curve" smooth="yes"/>
			<point x="375" y="783"/>
			<point x="226" y="783"/>
			<point x="60" y="783" type="curve"/>
			<point x="60" y="687" type="line"/>
			<point x="109" y="691"/>
			<point x="375.012" y="694"/>
			<point x="411.012" y="694" type="curve" smooth="yes"/>
			<point x="418.986" y="694"/>
			<point x="440.546" y="693.717"/>
			<point x="466.66" y="692.85" type="curve" smooth="yes"/>
			<point x="489.634" y="692.087"/>
			<point x="516.131" y="682.872"/>
			<point x="540" y="681" type="curve"/>
		</contour>
		<contour>
			<point x="479.221" y="736.318" type="line"/>
			<point x="447.308" y="715.797"/>
			<point x="389.69493" y="661.00634"/>
			<point x="374.003" y="634.352" type="curve" smooth="yes"/>
			<point x="50" y="84" type="line"/>
			<point x="106" y="53" type="line"/>
			<point x="163.909" y="53" type="line"/>
			<point x="190.294" y="87.043"/>
			<point x="228.893" y="124.945"/>
			<point x="245.063" y="155.129" type="curve" smooth="yes"/>
			<point x="270.533" y="202.673"/>
			<point x="498.009" y="594.35"/>
			<point x="540" y="681" type="curve"/>
		</contour>
	</outline>
</glyph>
<glyph name="e" format="2">
	<advance width="515.37"/>
	<unicode hex="0065"/>
	<guideline x="589.72" y="417" angle="0"/>
	<guideline x="589.72" y="87" angle="0"/>
	<guideline x="589.72" y="535" angle="0"/>
	<guideline x="878.72" y="0" angle="0"/>
	<guideline x="589.72" y="357" angle="0"/>
	<guideline x="589.72" y="326" angle="0"/>
	<anchor x="242.52" y="600" name="top"/>
	<anchor x="258" y="0" name="bottom"/>
	<anchor x="464" y="10" name="ogonek"/>
	<outline>
		<contour>
			<point x="398.66" y="244.956" type="curve"/>
			<point x="485.369" y="294.634" type="line"/>
			<point x="485.369" y="357" type="line" smooth="yes"/>
			<point x="485.369" y="442.469"/>
			<point x="445.967" y="563.417"/>
			<point x="423.405" y="582.307" type="curve"/>
			<point x="407.829" y="590.286"/>
			<point x="350.913" y="599.957"/>
			<point x="303.407" y="599.957" type="curve" smooth="yes"/>
			<point x="177.906" y="599.957"/>
			<point x="30" y="506.518"/>
			<point x="30" y="258.928" type="curve" smooth="yes"/>
			<point x="30" y="106.288"/>
			<point x="118.358" y="-11"/>
			<point x="267.181" y="-11" type="curve" smooth="yes"/>
			<point x="329.467" y="-11"/>
			<point x="402.089" y="4.804"/>
			<point x="477" y="57" type="curve"/>
			<point x="445" y="121" type="line"/>
			<point x="417.597" y="104.438"/>
			<point x="347.055" y="72.957"/>
			<point x="282.578" y="72.957" type="curve" smooth="yes"/>
			<point x="211.157" y="72.957"/>
			<point x="162.153" y="128.891"/>
			<point x="162.153" y="284.612" type="curve" smooth="yes"/>
			<point x="162.153" y="342.271"/>
			<point x="164.337" y="423.06"/>
			<point x="176.064" y="454.738" type="curve"/>
			<point x="194.07" y="479.609"/>
			<point x="240.52" y="513.509"/>
			<point x="278.615" y="513" type="curve" smooth="yes"/>
			<point x="341.889" y="512.155"/>
			<point x="365.162" y="443.183"/>
			<point x="365.162" y="359.362" type="curve" smooth="yes"/>
			<point x="365.162" y="341.93"/>
			<point x="365.162" y="319.535"/>
			<point x="365.162" y="300" type="curve"/>
			<point x="381.699" y="323.13" type="line"/>
			<point x="359.699" y="322.851"/>
			<point x="335.546" y="322.811"/>
			<point x="302.407" y="322.811" type="curve" smooth="yes"/>
			<point x="229.686" y="322.811"/>
			<point x="176.906" y="316.039"/>
			<point x="135.392" y="303.547" type="curve"/>
			<point x="135.392" y="245.875" type="line"/>
			<point x="209.702" y="245.875"/>
			<point x="307.717" y="245.193"/>
		</contour>
	</outline>
</glyph>
<glyph name="f" format="2">
	<advance width="396.17"/>
	<unicode hex="0066"/>
	<outline>
		<contour>
			<point x="30.003" y="512.179" type="line"/>
			<point x="120.003" y="512.179"/>
			<point x="274.98" y="512.179"/>
			<point x="363.98" y="512.179" type="curve"/>
			<point x="363.98" y="600.179" type="line"/>
			<point x="342.053" y="598.954"/>
			<point x="281.606" y="595.816"/>
			<point x="201.018" y="596.115" type="curve" smooth="yes"/>
			<point x="109.188" y="596.459"/>
			<point x="65.517" y="589.343"/>
			<point x="30.003" y="576.851" type="curve"/>
		</contour>
		<contour>
			<point x="79.76" y="-0.182" type="curve"/>
			<point x="227.422" y="-0.182" type="line"/>
			<point x="231.34" y="534.229" type="line"/>
			<point x="231.34" y="547.671"/>
			<point x="224.096" y="628.309"/>
			<point x="224.096" y="684.433" type="curve" smooth="yes"/>
			<point x="224.096" y="713.788"/>
			<point x="255.243" y="739.012"/>
			<point x="287.168" y="739.012" type="curve" smooth="yes"/>
			<point x="325.98" y="739.012"/>
			<point x="361.254" y="726.278"/>
			<point x="387.362" y="712.337" type="curve"/>
			<point x="395.73" y="720.932"/>
			<point x="431.168" y="770.293"/>
			<point x="431.168" y="777.835" type="curve" smooth="yes"/>
			<point x="431.168" y="784.695"/>
			<point x="414.004" y="813.813"/>
			<point x="404.421" y="824.076" type="curve"/>
			<point x="385.362" y="829.254"/>
			<point x="356.17" y="834.818"/>
			<point x="301.285" y="834.818" type="curve" smooth="yes"/>
			<point x="189.17" y="834.818"/>
			<point x="124.031" y="777.892"/>
			<point x="84.313" y="731.266" type="curve"/>
			<point x="89.471" y="699.805"/>
			<point x="95.711" y="639.33"/>
			<point x="100.28" y="598.287" type="curve"/>
			<point x="100.28" y="116.779" type="line"/>
			<point x="98.931" y="90.861"/>
			<point x="82.722" y="19.987"/>
		</contour>
	</outline>
</glyph>
<glyph name="j" format="2">
	<advance width="315.45"/>
	<unicode hex="006A"/>
	<outline>
		<contour>
			<point x="260.452" y="749.212" type="curve" smooth="yes"/>
			<point x="260.452" y="703.788"/>
			<point x="223.238" y="671.965"/>
			<point x="177.332" y="671.965" type="curve" smooth="yes"/>
			<point x="131.426" y="671.965"/>
			<point x="94.211" y="703.788"/>
			<point x="94.211" y="749.212" type="curve" smooth="yes"/>
			<point x="94.211" y="794.636"/>
			<point x="131.426" y="826.458"/>
			<point x="177.332" y="826.458" type="curve" smooth="yes"/>
			<point x="223.238" y="826.458"/>
			<point x="260.452" y="794.636"/>
		</contour>
		<contour>
			<point x="247.788" y="-58.276" type="curve"/>
			<point x="242.026" y="1.054"/>
			<point x="239.495" y="33.37"/>
			<point x="237.162" y="74.413" type="curve"/>
			<point x="237.162" y="399.793" type="line"/>
			<point x="238.526" y="458.724"/>
			<point x="252.015" y="553.244"/>
			<point x="252.642" y="584.92" type="curve"/>
			<point x="247.788" y="588.905"/>
			<point x="200.371" y="600"/>
			<point x="189.455" y="599.92" type="curve" smooth="yes"/>
			<point x="178.805" y="599.842"/>
			<point x="110.5" y="569.034"/>
			<point x="104.642" y="562.92" type="curve"/>
			<point x="106.202" y="-31.918" type="line"/>
			<point x="106.202" y="-49.135"/>
			<point x="105.149" y="-90.064"/>
			<point x="95.404" y="-106.863" type="curve" smooth="yes"/>
			<point x="82.211" y="-129.605"/>
			<point x="37.079" y="-157.242"/>
			<point x="9.999" y="-159.868" type="curve"/>
			<point x="41.203" y="-217.148" type="line"/>
			<point x="71.254" y="-214.887"/>
			<point x="165.123" y="-167.495"/>
			<point x="178.805" y="-157.242" type="curve"/>
			<point x="192.053" y="-143.943"/>
			<point x="237.162" y="-94.415"/>
		</contour>
	</outline>
</glyph>
<glyph name="t" format="2">
	<advance width="409.36"/>
	<unicode hex="0074"/>
	<outline>
		<contour>
			<point x="35.003" y="512.179" type="line"/>
			<point x="125.003" y="512.179"/>
			<point x="269.98" y="512.179"/>
			<point x="358.98" y="512.179" type="curve"/>
			<point x="358.98" y="600.179" type="line"/>
			<point x="337.053" y="598.954"/>
			<point x="268.934" y="596.115"/>
			<point x="203.018" y="596.115" type="curve" smooth="yes"/>
			<point x="111.187" y="596.115"/>
			<point x="70.517" y="589.343"/>
			<point x="35.003" y="576.851" type="curve"/>
		</contour>
		<contour>
			<point x="73.517" y="719.488" type="curve"/>
			<point x="83.838" y="685.964"/>
			<point x="103.941" y="580.843"/>
			<point x="97.113" y="541.266" type="curve"/>
			<point x="97.113" y="153.562" type="line"/>
			<point x="94.696" y="128.224"/>
			<point x="91.713" y="106.66"/>
			<point x="89.084" y="85.962" type="curve"/>
			<point x="89.084" y="56.733"/>
			<point x="147.755" y="7.836"/>
			<point x="161.003" y="-1.783" type="curve"/>
			<point x="174.685" y="-7.961"/>
			<point x="240.677" y="-11.86"/>
			<point x="263.85" y="-10.606" type="curve" smooth="yes"/>
			<point x="330.793" y="-6.983"/>
			<point x="382.186" y="20.592"/>
			<point x="399.36" y="33.391" type="curve"/>
			<point x="367.944" y="93.142" type="line"/>
			<point x="339.247" y="80.253"/>
			<point x="306.89" y="75.616"/>
			<point x="288.901" y="75.616" type="curve"/>
			<point x="233.539" y="78.701"/>
			<point x="229.519" y="102.368"/>
			<point x="229.519" y="165.816" type="curve"/>
			<point x="229.677" y="745.984" type="line"/>
			<point x="224.823" y="749.969"/>
			<point x="185.406" y="761.064"/>
			<point x="174.49" y="760.984" type="curve" smooth="yes"/>
			<point x="163.84" y="760.906"/>
			<point x="79.375" y="725.602"/>
		</contour>
	</outline>
</glyph>
<glyph name="questiondown" format="2">
	<advance width="529.29"/>
	<unicode hex="00BF"/>
	<outline>
		<contour>
			<point x="218.474" y="371.656" type="curve"/>
			<point x="240.335" y="247.536" type="line"/>
			<point x="218.474" y="224.07"/>
			<point x="84.393" y="96.004"/>
			<point x="72.232" y="78.745" type="curve"/>
			<point x="61.909" y="58.129"/>
			<point x="55.387" y="-29.656"/>
			<point x="62.34" y="-91.976" type="curve"/>
			<point x="93.192" y="-167.301"/>
			<point x="152.751" y="-225.488"/>
			<point x="251.887" y="-225.488" type="curve" smooth="yes"/>
			<point x="366.167" y="-225.488"/>
			<point x="442.477" y="-163.883"/>
			<point x="487.4" y="-96.819" type="curve"/>
			<point x="408.586" y="-48.43" type="line"/>
			<point x="397.024" y="-63.418"/>
			<point x="338.643" y="-138.309"/>
			<point x="277.045" y="-138.309" type="curve" smooth="yes"/>
			<point x="225.116" y="-138.309"/>
			<point x="192.782" y="-66.718"/>
			<point x="186.803" y="-38.738" type="curve"/>
			<point x="186.803" y="42.313"/>
			<point x="275.091" y="149.602"/>
			<point x="345.329" y="210.033" type="curve"/>
			<point x="353.812" y="255.215"/>
			<point x="358.779" y="331.932"/>
			<point x="358.779" y="374.58" type="curve"/>
			<point x="339.789" y="386.263"/>
			<point x="319.657" y="395.617"/>
			<point x="309.111" y="397.482" type="curve" smooth="yes"/>
			<point x="298.667" y="399.33"/>
			<point x="225.452" y="375.9"/>
		</contour>
		<contour>
			<point x="193.925" y="552.647" type="curve" smooth="yes"/>
			<point x="193.925" y="598.071"/>
			<point x="230.725" y="629.894"/>
			<point x="277.045" y="629.894" type="curve" smooth="yes"/>
			<point x="322.951" y="629.894"/>
			<point x="360.166" y="598.071"/>
			<point x="360.166" y="552.647" type="curve" smooth="yes"/>
			<point x="360.166" y="507.223"/>
			<point x="322.951" y="475.401"/>
			<point x="277.045" y="475.401" type="curve" smooth="yes"/>
			<point x="231.139" y="475.401"/>
			<point x="193.925" y="507.223"/>
		</contour>
	</outline>
</glyph>
<glyph name="idotless" format="2">
	<advance width="276.24"/>
	<unicode hex="0131"/>
	<anchor x="84.293" y="600" name="top"/>
	<anchor x="138" y="0" name="bottom"/>
	<anchor x="249" y="10" name="ogonek"/>
	<outline>
		<contour>
			<point x="74.856" y="0.413" type="curve"/>
			<point x="217.095" y="0.413" type="line"/>
			<point x="217.432" y="584.92" type="line"/>
			<point x="212.578" y="588.905"/>
			<point x="177.161" y="600"/>
			<point x="166.245" y="599.92" type="curve" smooth="yes"/>
			<point x="155.595" y="599.842"/>
			<point x="66.29" y="563.034"/>
			<point x="60.432" y="556.92" type="curve"/>
			<point x="69.856" y="525.547"/>
			<point x="82.293" y="439.311"/>
			<point x="84.705" y="398.287" type="curve"/>
			<point x="84.71" y="116.779" type="line"/>
			<point x="84.703" y="93.745"/>
			<point x="77.349" y="17.468"/>
		</contour>
	</outline>
</glyph>
